<svg xmlns="http://www.w3.org/2000/svg" xmlns:xlink="http://www.w3.org/1999/xlink" id="instagram-social-icon" width="34px" height="34px" viewBox="0 0 34 34" version="1.1">
    <title>instagram-social-icon</title>
    <g stroke="none" fill-rule="evenodd" fill="#FFFFFF">
        <path d="M0,0 L34,0 L34,34 L0,34 L0,0 L0,0 Z M7,9.14285714 L7,24.8571429 C7,26.0407143 7.95928571,27 9.14285714,27 L24.8571429,27 C26.0407143,27 27,26.0407143 27,24.8571429 L27,9.14285714 C27,7.95928571 26.0407143,7 24.8571429,7 L9.14285714,7 C7.95928571,7 7,7.95928571 7,9.14285714 Z M10,15.5 L10.7357143,15.5 C10.6314286,16.0321429 10.5714286,16.5085714 10.5714286,17 C10.5714286,20.5507143 13.4492857,23.4285714 17,23.4285714 C20.5507143,23.4285714 23.4285714,20.5507143 23.4285714,17 C23.4285714,16.5085714 23.3685714,16.0321429 23.2642857,15.5 L24.4285714,15.5 L25,15.5 L25,23.7968184 C25,24.4613173 24.4676514,25 23.7973995,25 L10.2026005,25 C9.53842258,25 9,24.4620194 9,23.7968184 L9,15.5 L10,15.5 L10,15.5 Z M21.2857143,17 C21.2857143,19.3664286 19.3664286,21.2857143 17,21.2857143 C14.6335714,21.2857143 12.7142857,19.3664286 12.7142857,17 C12.7142857,14.6335714 14.6335714,12.7142857 17,12.7142857 C19.3664286,12.7142857 21.2857143,14.6335714 21.2857143,17 L21.2857143,17 Z M24.25,13.5 L21.25,13.5 C20.83525,13.5 20.5,13.16475 20.5,12.75 L20.5,9.75 C20.5,9.33525 20.83525,9 21.25,9 L24.25,9 C24.66475,9 25,9.33525 25,9.75 L25,12.75 C25,13.16475 24.66475,13.5 24.25,13.5 L24.25,13.5 Z"/>
    </g>
</svg>